
<?xml version="1.0" encoding="UTF-8"?>
<svg version="1.1" xmlns="http://www.w3.org/2000/svg" width="60" height="47">
<path d="M0 0 C19.8 0 39.6 0 60 0 C60 15.51 60 31.02 60 47 C40.2 47 20.4 47 0 47 C0 31.49 0 15.98 0 0 Z " fill="#04192F" transform="translate(0,0)"/>
<path d="M0 0 C2.6022677 2.34697437 4.12691337 4.77918619 5.77734375 7.859375 C6.29103516 8.81070312 6.80472656 9.76203125 7.33398438 10.7421875 C7.86314453 11.73476563 8.39230469 12.72734375 8.9375 13.75 C9.98767362 15.70345178 11.03844208 17.65658391 12.08984375 19.609375 C12.58597168 20.53556641 13.08209961 21.46175781 13.59326172 22.41601562 C14.81639218 24.66273774 16.0819062 26.87362469 17.37890625 29.078125 C19 32 19 32 19 34 C6.46 34 -6.08 34 -19 34 C-17.9939251 29.97570039 -16.62855535 27.3250656 -14.5625 23.75 C-14.21703125 23.15171387 -13.8715625 22.55342773 -13.515625 21.93701172 C-9.19190606 14.51373631 -4.59811848 7.25522793 0 0 Z " fill="#09417C" transform="translate(29,6)"/>
<path d="M0 0 C0.66 0.33 1.32 0.66 2 1 C2.50158588 2.90602636 2.9942084 4.81519265 3.42578125 6.73828125 C4.00036719 9.00144627 4.75917094 11.08339488 5.625 13.25 C7 17 7 17 7 21 C4.69 20.34 2.38 19.68 0 19 C-2.31 21.97 -4.62 24.94 -7 28 C-5.68 28.66 -4.36 29.32 -3 30 C-3.33 30.99 -3.66 31.98 -4 33 C-8.62 33 -13.24 33 -18 33 C-15.75225149 24.71142738 -11.64137361 18.17380191 -7 11 C-5.66602903 8.89623751 -4.33264441 6.79210306 -3 4.6875 C-2.00101264 3.12435237 -1.00142044 1.56159001 0 0 Z " fill="#0250A2" transform="translate(29,6)"/>
<path d="M0 0 C3.18019683 2.9238411 5.25351309 5.83401169 7.3125 9.625 C7.84488281 10.58664063 8.37726562 11.54828125 8.92578125 12.5390625 C9.28027344 13.35117187 9.63476562 14.16328125 10 15 C9.67 15.66 9.34 16.32 9 17 C2.73 15.68 -3.54 14.36 -10 13 C-9.34 11.35 -8.68 9.7 -8 8 C-5.03 8.33 -2.06 8.66 1 9 C0.649375 8.2575 0.29875 7.515 -0.0625 6.75 C-1.04509293 3.8677274 -1.0326802 2.78823655 0 0 Z " fill="#0352A6" transform="translate(38,23)"/>
<path d="M0 0 C0.66 0.33 1.32 0.66 2 1 C2.50158588 2.90602636 2.9942084 4.81519265 3.42578125 6.73828125 C4.00036719 9.00144627 4.75917094 11.08339488 5.625 13.25 C7 17 7 17 7 21 C4.125 20.4375 4.125 20.4375 1 19 C-0.375 15.375 -0.375 15.375 -1 12 C-3.475 13.485 -3.475 13.485 -6 15 C-6.88229454 9.26508549 -4.50103025 6.23061188 -1.3125 1.7578125 C-0.6628125 0.88769531 -0.6628125 0.88769531 0 0 Z " fill="#0252A6" transform="translate(29,6)"/>
<path d="M0 0 C3.69227317 4.08787387 6.45393891 8.6978641 8 14 C7.578125 16.10546875 7.578125 16.10546875 7 18 C7.38567131 20.68149993 7.38567131 20.68149993 8 23 C2.80790596 23.21192221 -1.126739 22.5912689 -6 21 C-4.68 19.02 -3.36 17.04 -2 15 C1.465 16.485 1.465 16.485 5 18 C4.6390625 17.03578125 4.278125 16.0715625 3.90625 15.078125 C3.43716262 13.80220732 2.96843127 12.52615871 2.5 11.25 C2.26152344 10.61578125 2.02304687 9.9815625 1.77734375 9.328125 C0.55198242 5.96713393 0 3.63128413 0 0 Z " fill="#074689" transform="translate(31,9)"/>
<path d="M0 0 C0.66 0.99 1.32 1.98 2 3 C3.32 2.34 4.64 1.68 6 1 C6 1.66 6 2.32 6 3 C4.49609375 4.41015625 4.49609375 4.41015625 2.4375 6.0625 C-2.08583215 9.88435283 -5.53363904 14.22292131 -9 19 C-9.33 18.34 -9.66 17.68 -10 17 C-9.19555664 15.21240234 -9.19555664 15.21240234 -7.91015625 13.0859375 C-7.45576172 12.32539063 -7.00136719 11.56484375 -6.53320312 10.78125 C-6.04787109 9.9871875 -5.56253906 9.193125 -5.0625 8.375 C-4.34030273 7.17230469 -4.34030273 7.17230469 -3.60351562 5.9453125 C-2.40943235 3.95911458 -1.20804799 1.97772458 0 0 Z " fill="#09437F" transform="translate(22,17)"/>
<path d="M0 0 C3.82601624 4.23594655 5.86362904 8.78407302 8 14 C7.01 14.495 7.01 14.495 6 15 C3.22165316 13.61082658 3.00357014 12.04236447 1.875 9.1875 C1.52179687 8.31480469 1.16859375 7.44210938 0.8046875 6.54296875 C0 4 0 4 0 0 Z " fill="#0B4076" transform="translate(31,9)"/>
<path d="M0 0 C0.66 0.33 1.32 0.66 2 1 C2.625 4.0625 2.625 4.0625 3 7 C0.69 6.67 -1.62 6.34 -4 6 C-2.68 4.02 -1.36 2.04 0 0 Z " fill="#09233E" transform="translate(29,24)"/>
<path d="M0 0 C1.98 0.66 3.96 1.32 6 2 C5.67 2.99 5.34 3.98 5 5 C2.69 5 0.38 5 -2 5 C-1.34 3.35 -0.68 1.7 0 0 Z " fill="#0157B0" transform="translate(20,34)"/>
</svg>
